# xmcd
#
# Track frame offsets:
#	150
#	13582
#	30105
#	41350
#	52907
#	67757
#	81422
#	97175
#	110507
#	126337
#
# Disc length: 1858 seconds
#
# Revision: 2
# Processed by: cddbd v1.5.1PL2 Copyright (c) Steve Scherf et al.
# Submitted via: audiograbber 1.81.03
#
DISCID=7507400a
DTITLE=The Oak Ridge Boys - Greatest Hits
DYEAR=1985
DGENRE=Country
TTITLE0=You're The One
TTITLE1=I'll Be True To You
TTITLE2=Trying To Love Two Women
TTITLE3=Cryin' Again
TTITLE4=Dream On
TTITLE5=Leaving Louisiana In The Broad Daylight
TTITLE6=Heart Of Mine
TTITLE7=Come On In
TTITLE8=Sail Away
TTITLE9=Y'All Come Back Saloon
EXTD=
EXTT0=
EXTT1=
EXTT2=
EXTT3=
EXTT4=
EXTT5=
EXTT6=
EXTT7=
EXTT8=
EXTT9=
PLAYORDER=
